<?xml version="1.0" encoding="UTF-8" standalone="no"?><!DOCTYPE svg PUBLIC "-//W3C//DTD SVG 1.1//EN" "http://www.w3.org/Graphics/SVG/1.1/DTD/svg11.dtd"><svg width="100%" height="100%" viewBox="0 0 3255 3255" version="1.1" xmlns="http://www.w3.org/2000/svg" xmlns:xlink="http://www.w3.org/1999/xlink" xml:space="preserve" xmlns:serif="http://www.serif.com/" style="fill-rule:evenodd;clip-rule:evenodd;stroke-linejoin:round;stroke-miterlimit:2;"><g><path d="M1073.85,878.042l-598.475,-400.896l401.817,597.858l196.658,-196.962Z" style="fill:#f7a663;fill-rule:nonzero;"/><path d="M701.992,1523.27l71.829,-268.9l-718.746,-47.955l646.917,316.855Z" style="fill:#ffc80a;fill-rule:nonzero;"/><path d="M738.283,1864.67l-36.146,-134.396l-646.416,317.838l718.671,-49.03l-36.109,-134.412Z" style="fill:#f7a663;fill-rule:nonzero;"/><path d="M976.5,2276.59l-98.446,-98.317l-400.921,598.45l597.859,-401.792l-98.492,-98.341Z" style="fill:#ffc80a;fill-rule:nonzero;"/><path d="M1388.8,2514.22l-134.45,-35.938l-47.954,718.742l316.842,-646.875l-134.438,-35.929Z" style="fill:#f7a663;fill-rule:nonzero;"/><path d="M1730.29,2549.97l317.825,646.425l-49.042,-718.659l-134.408,36.134l-134.375,36.1Z" style="fill:#ffc80a;fill-rule:nonzero;"/><path d="M2178.25,2374.06l598.487,400.912l-401.804,-597.85l-98.329,98.483l-98.354,98.454Z" style="fill:#f7a663;fill-rule:nonzero;"/><path d="M2514.22,1863.31l-35.938,134.429l718.742,47.975l-646.887,-316.855l-35.917,134.45Z" style="fill:#ffc80a;fill-rule:nonzero;"/><path d="M2513.86,1387.44l36.088,134.383l646.425,-317.821l-718.671,49.054l36.158,134.384Z" style="fill:#f7a663;fill-rule:nonzero;"/><path d="M2774.96,475.367l-597.851,401.829l98.484,98.304l98.466,98.342l400.9,-598.475Z" style="fill:#ffc80a;fill-rule:nonzero;"/><path d="M1863.29,737.892l134.441,35.929l47.963,-718.734l-316.854,646.917l134.45,35.888Z" style="fill:#f7a663;fill-rule:nonzero;"/><path d="M1521.84,702.163l-317.846,-646.43l49.041,718.684l134.409,-36.134l134.395,-36.12Z" style="fill:#ffc80a;fill-rule:nonzero;"/><path d="M1029.63,2221.12c328.046,327.752 859.505,327.344 1187.04,-0.899c-226.138,-512.798 -595.17,-927.232 -1187.95,-1186.89c-327.534,328.243 -327.126,860.042 0.911,1187.79" style="fill:#f4ca19;fill-rule:nonzero;"/><path d="M2215.42,2222.1c325.62,-327.099 324.676,-858.047 -2.712,-1185.53c-327.388,-327.486 -858.336,-328.589 -1185.53,-3.068c210.541,147.423 440.802,326.458 651.361,537.08c210.559,210.623 389.525,440.937 536.884,651.522Z" style="fill:#fdd633;"/></g></svg>